PathFileType	4	(x/y/z)	S02_M20_T04
DataRate	CameraRate	NumFrames	NumMarkers	Units	OrigDataRate	OrigDataStartFrame	OrigNumFrames
240	240	11	51	mm	240	1	466
Frame#	Time	Sternum			R.Acromium			L.Acromium			Top.Head			R.ASIS			L.ASIS			R.PSIS			L.PSIS			R.Great.Tro			L.Great.Tro			R.Iliac.Crest			L.Iliac.Crest			V.Sacral			R.Thigh.Upper.Post			R.Thigh.Lower.Ant			R.Thigh.Lower.Post			R.Thigh.Upper.Ant			R.Knee.Lat			R.Knee.Med			R.Shank.Upper.Post			R.Shank.Lower.Ant			R.Shank.Lower.Post			R.Shank.Upper.Ant			R.Ankle.Lat			R.Ankle.Med			R.Heel.Upper			R.Heel.Med			R.Heel.Lat			R.Toe.Lat			R.Toe.Med			R.Toe.Tip			L.Thigh.Upper.Post			L.Thigh.Lower.Ant			L.Thigh.Lower.Post			L.Thigh.Upper.Ant			L.Knee.Lat			L.Knee.Med			L.Shank.Upper.Post			L.Shank.Lower.Ant			L.Shank.Lower.Post			L.Shank.Upper.Ant			L.Ankle.Lat			L.Ankle.Med			L.Heel.Upper			L.Heel.Med			L.Heel.Lat			L.Toe.Lat			L.Toe.Med			L.Toe.Tip			Cervical.Spine			Back			
		X1	Y1	Z1	X2	Y2	Z2	X3	Y3	Z3	X4	Y4	Z4	X5	Y5	Z5	X6	Y6	Z6	X7	Y7	Z7	X8	Y8	Z8	X9	Y9	Z9	X10	Y10	Z10	X11	Y11	Z11	X12	Y12	Z12	X13	Y13	Z13	X14	Y14	Z14	X15	Y15	Z15	X16	Y16	Z16	X17	Y17	Z17	X18	Y18	Z18	X19	Y19	Z19	X20	Y20	Z20	X21	Y21	Z21	X22	Y22	Z22	X23	Y23	Z23	X24	Y24	Z24	X25	Y25	Z25	X26	Y26	Z26	X27	Y27	Z27	X28	Y28	Z28	X29	Y29	Z29	X30	Y30	Z30	X31	Y31	Z31	X32	Y32	Z32	X33	Y33	Z33	X34	Y34	Z34	X35	Y35	Z35	X36	Y36	Z36	X37	Y37	Z37	X38	Y38	Z38	X39	Y39	Z39	X40	Y40	Z40	X41	Y41	Z41	X42	Y42	Z42	X43	Y43	Z43	X44	Y44	Z44	X45	Y45	Z45	X46	Y46	Z46	X47	Y47	Z47	X48	Y48	Z48	X49	Y49	Z49	X50	Y50	Z50	X51	Y51	Z51	

1	0	NaN	NaN	NaN	-1649.1	1298.6	466.46	-1664.2	1310.5	175.79	-1604.9	1586.7	321.16	NaN	NaN	NaN	NaN	NaN	NaN	-1803.5	934.9	339.87	-1792	934.75	265.87	-1707.5	790.77	519.43	NaN	NaN	NaN	-1719	944.55	479.74	-1663.1	934.19	140.53	-1824.3	887.28	292.15	NaN	NaN	NaN	NaN	NaN	NaN	-1801.3	521.98	462.44	-1684.7	584.39	473.79	-1805.7	440.22	443	-1813.3	433.84	300.8	NaN	NaN	NaN	-1918	177.83	390.95	NaN	NaN	NaN	-1898.7	239.38	413.51	-2004.2	112	380.98	-1993	129.99	296.26	-2066.8	107.83	325.22	-2056.8	73.209	297.73	-2070.2	75.728	359.87	-1910.2	43.159	402.12	-1879	39.505	297.09	-1827.5	60.784	351.09	-1586.7	572.79	149.44	-1483.5	536.27	162.89	-1549.1	492.85	175.07	-1530.6	615.63	137.74	-1466.7	458.07	174.85	-1469.5	455.07	313.31	-1466.5	269.7	179.5	-1361.7	226.9	185.98	-1432.4	204.44	196.21	-1403.7	289.59	171.65	-1344.3	110.76	200.24	NaN	NaN	NaN	-1386.3	57.47	240.31	-1364.7	43.475	274.74	-1362.4	29.944	215.37	-1213.6	95.911	178.54	-1202.4	127.68	282.61	-1157.9	166.79	232.39	-1733.7	1370.3	328.03	-1820.2	1121.5	328.13
2	0.0041667	NaN	NaN	NaN	-1643.7	1298.1	465.58	-1658.8	1309.6	174.98	-1599.7	1586	319.93	NaN	NaN	NaN	NaN	NaN	NaN	-1798	934.3	339.63	-1786.5	934.17	265.66	-1702.6	789.98	519.08	NaN	NaN	NaN	-1713.5	943.66	479.58	-1657.6	933.55	140.46	-1818.9	886.74	291.87	NaN	NaN	NaN	NaN	NaN	NaN	-1796.6	521.36	462.13	-1680.2	583.56	473.71	-1801.3	439.77	442.83	-1808.8	433.21	300.53	NaN	NaN	NaN	-1916	178.47	390.97	NaN	NaN	NaN	-1895.7	239.86	413.33	-2003	113.27	381.28	-1991.4	130.86	296.74	-2065.7	109.9	325.48	-2056.1	75.314	297.91	-2069.5	77.727	360.07	-1909.9	43.26	402.28	-1878.9	39.485	297.1	-1827.3	60.718	351.01	-1581	572.14	149.56	-1477.8	535.75	162.94	-1543.3	492.31	175.34	-1525	614.99	137.65	-1461	457.47	175	-1463.6	454.78	313.56	-1462.6	269.07	179.75	-1355.9	226.46	185.05	-1429.3	203.49	196.5	-1399.5	288.34	172.12	-1342.1	109.45	200.76	NaN	NaN	NaN	-1384.7	57.071	240.64	-1363.9	42.72	274.9	-1361.4	29.468	215.59	-1211.5	92.914	179.37	-1200.2	124.16	283.47	-1155.1	162.78	233.55	-1728.6	1369.5	327.06	-1814.8	1120.7	327.68
3	0.0083333	NaN	NaN	NaN	-1638.2	1297.7	464.67	-1653.1	1308.7	174.14	-1594.3	1585.4	318.65	NaN	NaN	NaN	NaN	NaN	NaN	-1792.3	933.68	339.39	-1780.7	933.59	265.45	-1697.5	789.17	518.73	NaN	NaN	NaN	-1707.7	942.75	479.41	-1651.9	932.89	140.36	-1813.3	886.19	291.59	NaN	NaN	NaN	NaN	NaN	NaN	-1791.7	520.71	461.82	-1675.3	582.72	473.61	-1796.7	439.29	442.66	-1804.1	432.55	300.25	NaN	NaN	NaN	-1913.9	179.14	391.04	NaN	NaN	NaN	-1892.5	240.39	413.16	-2001.8	114.62	381.61	-1989.7	131.83	297.24	-2064.6	112.11	325.78	-2055.4	77.563	298.11	-2068.6	79.861	360.29	-1909.7	43.363	402.44	-1878.8	39.47	297.12	-1827.1	60.659	350.91	-1575.2	571.48	149.68	-1471.8	535.2	163	-1537.3	491.75	175.61	-1519.1	614.34	137.56	-1455.1	456.85	175.16	-1457.4	454.47	313.8	-1458.5	268.43	180.02	-1350	225.89	184.24	-1425.9	202.53	196.8	-1395.2	287.07	172.61	-1339.8	108.12	201.3	NaN	NaN	NaN	-1383	56.722	241	-1363.1	41.976	275.09	-1360.3	29.05	215.82	-1209.4	89.809	180.22	-1198	120.48	284.35	-1152.2	158.57	234.74	-1723.2	1368.8	326.04	-1809.2	1119.8	327.2
4	0.0125	NaN	NaN	NaN	-1632.5	1297.3	463.73	-1647.3	1307.7	173.25	-1588.7	1584.7	317.33	NaN	NaN	NaN	NaN	NaN	NaN	-1786.3	933.06	339.15	-1774.7	933	265.22	-1692.1	788.33	518.37	-1632	793.28	122.55	-1701.7	941.83	479.23	-1646	932.23	140.24	-1807.4	885.64	291.3	NaN	NaN	NaN	NaN	NaN	NaN	-1786.6	520.04	461.51	-1670.3	581.88	473.5	-1792	438.79	442.5	-1799.1	431.86	299.99	NaN	NaN	NaN	-1911.7	179.84	391.15	NaN	NaN	NaN	-1889.1	240.96	412.98	-2000.5	116.06	381.98	-1988	132.88	297.78	-2063.4	114.46	326.11	-2054.6	79.957	298.34	-2067.7	82.129	360.54	-1909.4	43.468	402.6	-1878.8	39.461	297.15	-1826.8	60.609	350.79	-1569.2	570.82	149.8	-1465.7	534.63	163.06	-1531.1	491.19	175.9	-1513.1	613.67	137.47	-1449.1	456.22	175.32	-1451.2	454.17	314.03	-1454.3	267.79	180.31	-1344.3	225.18	183.6	-1422.5	201.58	197.13	-1390.7	285.79	173.12	-1337.5	106.8	201.87	NaN	NaN	NaN	-1381.3	56.44	241.38	-1362.2	41.259	275.3	-1359.3	28.709	216.05	-1207.2	86.623	181.07	-1195.7	116.67	285.24	-1149.2	154.19	235.95	-1717.6	1368.1	324.98	-1803.3	1119	326.68
5	0.016667	NaN	NaN	NaN	-1626.7	1296.8	462.77	-1641.2	1306.8	172.34	-1583	1584.1	315.97	NaN	NaN	NaN	NaN	NaN	NaN	-1780.2	932.45	338.91	-1768.6	932.43	265	-1686.6	787.48	518	-1626.2	793.1	122.27	-1695.5	940.93	479.05	-1639.8	931.58	140.09	-1801.3	885.1	291.01	NaN	NaN	NaN	NaN	NaN	NaN	-1781.2	519.36	461.2	-1665	581.05	473.37	-1787.2	438.26	442.33	-1794	431.15	299.75	NaN	NaN	NaN	-1909.4	180.58	391.33	NaN	NaN	NaN	-1885.6	241.58	412.81	-1999.1	117.57	382.39	-1986.1	134.02	298.35	-2062.1	116.94	326.48	-2053.6	82.496	298.59	-2066.7	84.532	360.8	-1909.2	43.576	402.77	-1878.7	39.461	297.18	-1826.5	60.569	350.65	-1563	570.18	149.92	-1459.5	534.04	163.14	-1524.8	490.64	176.19	-1507	612.99	137.39	-1443	455.58	175.49	-1444.8	453.86	314.24	-1450	267.17	180.62	-1338.8	224.33	183.15	-1419	200.64	197.47	-1386.1	284.52	173.66	-1335	105.5	202.46	NaN	NaN	NaN	-1379.5	56.241	241.78	-1361.2	40.582	275.53	-1358.2	28.462	216.29	-1205.1	83.38	181.92	-1193.3	112.76	286.13	-1146.1	149.67	237.17	-1711.9	1367.4	323.88	-1797.3	1118.2	326.14
6	0.020833	NaN	NaN	NaN	-1620.7	1296.5	461.8	-1635	1305.9	171.4	-1577.1	1583.4	314.57	NaN	NaN	NaN	NaN	NaN	NaN	-1773.9	931.85	338.67	-1762.3	931.88	264.76	-1680.8	786.62	517.63	-1620.2	792.93	121.97	-1689.1	940.05	478.87	-1633.6	930.95	139.9	-1795.1	884.57	290.73	NaN	NaN	NaN	NaN	NaN	NaN	-1775.6	518.67	460.91	-1659.5	580.24	473.23	-1782.2	437.72	442.17	-1788.6	430.42	299.53	NaN	NaN	NaN	-1907.1	181.35	391.57	NaN	NaN	NaN	-1881.9	242.24	412.66	-1997.6	119.18	382.85	-1984.1	135.25	298.96	-2060.7	119.55	326.89	-2052.6	85.182	298.87	-2065.7	87.072	361.1	-1908.9	43.688	402.94	-1878.6	39.474	297.23	-1826.2	60.538	350.48	-1556.8	569.57	150.04	-1453.2	533.44	163.22	-1518.5	490.09	176.49	-1500.7	612.33	137.31	-1436.8	454.94	175.66	-1438.3	453.55	314.43	-1445.6	266.57	180.94	-1333.5	223.32	182.92	-1415.3	199.74	197.83	-1381.4	283.28	174.21	-1332.5	104.23	203.06	NaN	NaN	NaN	-1377.7	56.131	242.21	-1360.2	39.954	275.79	-1357.2	28.318	216.54	-1202.9	80.108	182.74	-1191	108.77	287.01	-1142.9	145.03	238.37	-1706	1366.7	322.75	-1791.1	1117.4	325.57
7	0.025	NaN	NaN	NaN	-1614.6	1296.1	460.82	-1628.7	1305	170.43	-1571.1	1582.8	313.16	NaN	NaN	NaN	NaN	NaN	NaN	-1767.4	931.28	338.44	-1755.9	931.35	264.53	-1674.9	785.75	517.26	-1613.8	792.77	121.65	-1682.5	939.21	478.68	-1627.1	930.34	139.67	-1788.7	884.06	290.45	NaN	NaN	NaN	NaN	NaN	NaN	-1769.8	517.97	460.63	-1653.8	579.44	473.07	-1777.3	437.17	442.01	-1783	429.68	299.33	NaN	NaN	NaN	-1904.8	182.15	391.88	NaN	NaN	NaN	-1878	242.96	412.51	-1996	120.87	383.34	-1982.1	136.57	299.59	-2059.1	122.31	327.34	-2051.5	88.019	299.18	-2064.5	89.752	361.42	-1908.6	43.806	403.12	-1878.5	39.503	297.28	-1825.8	60.515	350.29	-1550.5	568.99	150.15	-1446.9	532.83	163.3	-1512.1	489.57	176.78	-1494.4	611.68	137.23	-1430.6	454.32	175.84	-1431.8	453.25	314.59	-1441.1	266.02	181.28	-1328.6	222.17	182.91	-1411.6	198.89	198.2	-1376.7	282.08	174.77	-1330	103.01	203.66	NaN	NaN	NaN	-1375.8	56.114	242.64	-1359.1	39.381	276.08	-1356.1	28.282	216.79	-1200.8	76.832	183.55	-1188.6	104.73	287.88	-1139.8	140.31	239.56	-1700.1	1366	321.59	-1784.7	1116.6	324.97
8	0.029167	NaN	NaN	NaN	-1608.4	1295.8	459.83	-1622.3	1304.1	169.44	-1565.1	1582.3	311.73	NaN	NaN	NaN	NaN	NaN	NaN	-1760.9	930.73	338.21	-1749.4	930.86	264.3	-1668.9	784.89	516.89	-1607.3	792.63	121.31	-1675.8	938.41	478.49	-1620.6	929.76	139.41	-1782.2	883.57	290.17	NaN	NaN	NaN	NaN	NaN	NaN	-1763.9	517.26	460.37	-1647.9	578.68	472.9	-1772.4	436.62	441.87	-1777.3	428.91	299.18	NaN	NaN	NaN	-1902.3	182.98	392.28	NaN	NaN	NaN	-1873.9	243.72	412.38	-1994.3	122.66	383.87	-1979.9	138.01	300.26	-2057.4	125.2	327.85	-2050.3	91.01	299.53	-2063.2	92.574	361.78	-1908.2	43.933	403.3	-1878.5	39.553	297.35	-1825.4	60.498	350.07	-1544.1	568.46	150.26	-1440.5	532.24	163.39	-1505.7	489.08	177.07	-1488	611.05	137.16	-1424.3	453.73	176.02	-1425.3	452.96	314.73	-1436.6	265.51	181.63	-1324	220.88	183.12	-1407.9	198.1	198.57	-1371.9	280.93	175.34	-1327.5	101.85	204.27	NaN	NaN	NaN	-1373.9	56.19	243.09	-1358	38.868	276.39	-1355.2	28.354	217.03	-1198.8	73.577	184.32	-1186.3	100.68	288.72	-1136.7	135.53	240.72	-1694	1365.4	320.4	-1778.3	1115.8	324.35
9	0.033333	NaN	NaN	NaN	-1602.2	1295.5	458.84	-1615.8	1303.3	168.43	-1559	1581.8	310.28	NaN	NaN	NaN	NaN	NaN	NaN	-1754.3	930.21	337.99	-1742.8	930.41	264.07	-1662.7	784.03	516.52	-1600.6	792.51	120.97	-1669	937.66	478.29	-1614	929.23	139.1	-1775.6	883.12	289.9	NaN	NaN	NaN	NaN	NaN	NaN	-1757.8	516.55	460.14	-1641.9	577.95	472.72	-1767.7	436.07	441.74	-1771.5	428.14	299.06	NaN	NaN	NaN	-1899.9	183.84	392.75	NaN	NaN	NaN	-1869.6	244.53	412.27	-1992.5	124.54	384.45	-1977.6	139.55	300.97	-2055.6	128.24	328.41	-2049	94.158	299.91	-2061.8	95.544	362.17	-1907.9	44.074	403.49	-1878.4	39.628	297.42	-1824.9	60.484	349.84	-1537.7	567.99	150.36	-1434.1	531.67	163.47	-1499.4	488.64	177.34	-1481.5	610.47	137.09	-1418.1	453.17	176.19	-1418.9	452.69	314.84	-1432	265.08	181.98	-1319.8	219.48	183.55	-1404.1	197.39	198.95	-1367.1	279.85	175.91	-1324.9	100.75	204.88	NaN	NaN	NaN	-1372	56.353	243.55	-1356.8	38.415	276.73	-1354.2	28.529	217.28	-1196.8	70.365	185.05	-1183.9	96.643	289.53	-1133.5	130.73	241.84	-1687.9	1364.8	319.2	-1771.7	1115.1	323.71
10	0.0375	NaN	NaN	NaN	-1596	1295.3	457.84	-1609.2	1302.5	167.4	-1552.8	1581.4	308.84	NaN	NaN	NaN	NaN	NaN	NaN	-1747.5	929.73	337.78	-1736.2	930	263.84	-1656.4	783.18	516.15	-1593.8	792.42	120.6	-1662.1	936.96	478.1	-1607.3	928.76	138.75	-1768.9	882.69	289.64	NaN	NaN	NaN	NaN	NaN	NaN	-1751.5	515.83	459.93	-1635.7	577.25	472.54	-1763.1	435.54	441.62	-1765.4	427.34	298.99	NaN	NaN	NaN	-1897.4	184.74	393.3	NaN	NaN	NaN	-1865.1	245.39	412.18	-1990.6	126.52	385.05	-1975.2	141.21	301.7	-2053.6	131.41	329.02	-2047.5	97.467	300.33	-2060.3	98.666	362.59	-1907.5	44.233	403.69	-1878.3	39.734	297.51	-1824.4	60.468	349.6	-1531.4	567.59	150.44	-1427.8	531.13	163.56	-1493.1	488.25	177.59	-1475.1	609.94	137.02	-1411.8	452.66	176.36	-1412.6	452.43	314.93	-1427.4	264.72	182.33	-1315.9	217.98	184.16	-1400.3	196.77	199.33	-1362.2	278.84	176.48	-1322.4	99.734	205.47	NaN	NaN	NaN	-1370.2	56.596	244	-1355.5	38.023	277.08	-1353.2	28.8	217.51	-1194.9	67.218	185.74	-1181.7	92.648	290.31	-1130.5	125.93	242.91	-1681.7	1364.3	317.98	-1765	1114.4	323.04
11	0.041667	NaN	NaN	NaN	-1589.7	1295.1	456.85	-1602.6	1301.7	166.36	-1546.7	1581	307.38	NaN	NaN	NaN	NaN	NaN	NaN	-1740.8	929.29	337.57	-1729.5	929.64	263.61	-1650	782.34	515.79	-1586.9	792.38	120.23	-1655.1	936.34	477.9	-1600.6	928.34	138.35	-1762.2	882.31	289.38	NaN	NaN	NaN	NaN	NaN	NaN	-1745	515.12	459.75	-1629.3	576.6	472.35	-1758.7	435.03	441.51	-1759.2	426.54	298.98	NaN	NaN	NaN	-1894.8	185.68	393.93	NaN	NaN	NaN	-1860.5	246.28	412.11	-1988.7	128.61	385.68	-1972.7	142.99	302.47	-2051.4	134.74	329.68	-2045.9	100.94	300.79	-2058.6	101.94	363.05	-1907.1	44.416	403.89	-1878.2	39.876	297.61	-1823.8	60.442	349.35	-1525	567.27	150.5	-1421.5	530.63	163.63	-1486.8	487.93	177.81	-1468.6	609.47	136.96	-1405.6	452.21	176.52	-1406.4	452.21	314.99	-1422.8	264.45	182.67	-1312.3	216.43	184.94	-1396.5	196.24	199.69	-1357.4	277.92	177.04	-1319.9	98.796	206.04	NaN	NaN	NaN	-1368.3	56.908	244.45	-1354.3	37.692	277.44	-1352.3	29.155	217.74	-1193.1	64.158	186.38	-1179.5	88.726	291.05	-1127.5	121.18	243.93	-1675.4	1363.8	316.75	-1758.3	1113.8	322.36
